# xmcd
#
# Track frame offsets:
#	150
#	14585
#	28595
#	44235
#	59030
#	73580
#	87745
#	102127
#	115145
#	128747
#	142382
#	156980
#	171642
#	184175
#	198120
#	211015
#	225497
#	238230
#	252012
#	267187
#	280310
#	292820
#
# Disc length: 4066 seconds
#
# Revision: 2
# Processed by: cddbd v1.5.1PL0 Copyright (c) Steve Scherf et al.
# Submitted via: audiograbber 1.83.01
#
DISCID=550fe016
DTITLE=Roosevelt Sykes - Complete Recorded Works - Vol. 4
DYEAR=1900
DGENRE=Blues
TTITLE0=D.B.A. Blues
TTITLE1=Ethel Mae Blues
TTITLE2=Radio Broadcasting Blues
TTITLE3=Old Market Street Blues
TTITLE4=Central Limited Blues
TTITLE5=Heavy Stuff Blues
TTITLE6=Steady Grinding Blues
TTITLE7=D-B-A Blues No. 2
TTITLE8=Dirty Mother For You (Don't You Know)
TTITLE9=Dirty Mother For You (Don't You Know)
TTITLE10=The Cannon Ball
TTITLE11=Jet Black Snake
TTITLE12=She Left Me Cold In Hand
TTITLE13=Driving Wheel Blues
TTITLE14=Barrel House Man
TTITLE15=Second Floor Blues
TTITLE16=Sister Kelly Blues
TTITLE17=Soft And Mellow (Stella Blues)
TTITLE18=Sugar Hill Blues
TTITLE19=Take Off Box
TTITLE20=The Honey Dripper
TTITLE21=Dirty Mother For You (Don't You Know)
EXTD=Complete Recorded Works In Chronological Order\nVol. 4 - 18 August 1934 to
EXTD=22 May 1936\n\nSee Also: http://www.document-records.co.uk/\nDocument Rec
EXTD=ords\nDOCD-5119
EXTT0=
EXTT1=
EXTT2=(Johnnie Strauss vocal)
EXTT3=(Johnnie Strauss vocal)
EXTT4=(Arthur McKay vocal)
EXTT5=(Arthur McKay vocal)
EXTT6=(Dorothy Baker vocal)
EXTT7=
EXTT8=(60503-a)
EXTT9=(60503-d)
EXTT10=
EXTT11=
EXTT12=
EXTT13=
EXTT14=
EXTT15=
EXTT16=
EXTT17=
EXTT18=
EXTT19=
EXTT20=
EXTT21=(90738)
PLAYORDER=
